<svg width="24" height="24" viewBox="0 0 24 24" fill="none" xmlns="http://www.w3.org/2000/svg">
<rect opacity="0.01" width="24" height="24" fill="#D8D8D8"/>
<path fill-rule="evenodd" clip-rule="evenodd" d="M10.5 3C14.6421 3 18 6.35786 18 10.5C18 12.3911 17.3001 14.1188 16.1451 15.438L20.9749 20.2678C21.1701 20.463 21.1701 20.7796 20.9749 20.9749C20.7796 21.1701 20.463 21.1701 20.2678 20.9749L15.438 16.1451C14.1188 17.3001 12.3911 18 10.5 18C6.35786 18 3 14.6421 3 10.5C3 6.35786 6.35786 3 10.5 3ZM10.5 4C6.91015 4 4 6.91015 4 10.5C4 14.0899 6.91015 17 10.5 17C14.0899 17 17 14.0899 17 10.5C17 6.91015 14.0899 4 10.5 4Z" fill="#979797"/>
<mask id="mask0_104_8714" style="mask-type:alpha" maskUnits="userSpaceOnUse" x="3" y="3" width="19" height="19">
<path fill-rule="evenodd" clip-rule="evenodd" d="M10.5 3C14.6421 3 18 6.35786 18 10.5C18 12.3911 17.3001 14.1188 16.1451 15.438L20.9749 20.2678C21.1701 20.463 21.1701 20.7796 20.9749 20.9749C20.7796 21.1701 20.463 21.1701 20.2678 20.9749L15.438 16.1451C14.1188 17.3001 12.3911 18 10.5 18C6.35786 18 3 14.6421 3 10.5C3 6.35786 6.35786 3 10.5 3ZM10.5 4C6.91015 4 4 6.91015 4 10.5C4 14.0899 6.91015 17 10.5 17C14.0899 17 17 14.0899 17 10.5C17 6.91015 14.0899 4 10.5 4Z" fill="white"/>
</mask>
<g mask="url(#mask0_104_8714)">
<rect width="24" height="24" fill="#656565"/>
<rect width="24" height="24" fill="#595959"/>
</g>
</svg>
