<svg width="134" height="20" viewBox="0 0 134 20" fill="none" xmlns="http://www.w3.org/2000/svg">
<path fill-rule="evenodd" clip-rule="evenodd" d="M3.09494 6.73992C3.38542 6.65471 3.70476 6.55686 4.05462 6.44554C4.40358 6.33512 4.79668 6.23368 5.23109 6.13949C5.66641 6.04613 6.15209 5.96982 6.68906 5.90967C7.22692 5.85043 7.83584 5.8208 8.51846 5.8208C10.5306 5.8208 11.912 6.39886 12.6631 7.55677C13.4132 8.71378 13.5409 10.2971 13.0462 12.305L11.3067 19.5548H7.49491L9.18316 12.4576C9.28571 12.016 9.36667 11.586 9.42687 11.1687C9.48631 10.7522 9.48174 10.3859 9.41345 10.0709C9.34508 9.75678 9.18766 9.50093 8.94035 9.30523C8.69298 9.10953 8.31344 9.01175 7.80256 9.01175C7.30698 9.01175 6.8042 9.06292 6.29332 9.16429L3.81174 19.5548H0L3.09494 6.73992Z" fill="#006CFF"/>
<path fill-rule="evenodd" clip-rule="evenodd" d="M18.5202 12.1774C18.7244 11.156 19.1552 10.3346 19.8118 9.71347C20.4683 9.09233 21.232 8.78179 22.1017 8.78179C23.0227 8.78179 23.4833 9.19018 23.4833 10.007C23.4833 10.2457 23.423 10.4836 23.3034 10.7215C23.1846 10.9603 22.9454 11.181 22.5874 11.3857C22.2294 11.5895 21.7258 11.7645 21.0782 11.909C20.4297 12.0535 19.577 12.1433 18.5202 12.1774ZM24.5617 13.6707C25.3305 13.2492 25.9395 12.6937 26.3717 12.0202C26.8054 11.3456 27.0251 10.5133 27.0251 9.54733C27.0251 8.94158 26.9151 8.39238 26.6977 7.91584C26.4791 7.43701 26.1699 7.02697 25.7788 6.69778C25.3892 6.36915 24.9281 6.11489 24.4071 5.94115C23.8873 5.76899 23.3184 5.68164 22.7163 5.68164C21.4977 5.68164 20.3701 5.92906 19.3651 6.41735C18.3606 6.90646 17.495 7.55751 16.7924 8.35289C16.0909 9.14639 15.5387 10.0702 15.1515 11.0991C14.7657 12.1251 14.5703 13.2006 14.5703 14.2959C14.5703 15.0662 14.6747 15.8049 14.8807 16.4917C15.0882 17.1807 15.4256 17.7929 15.8838 18.3113C16.3426 18.8297 16.9478 19.2454 17.6819 19.5472C18.4146 19.8474 19.3251 19.9998 20.3883 19.9998C21.2612 19.9998 22.0807 19.9218 22.8241 19.768C22.9794 19.7361 23.5628 19.5647 24.0773 19.413C24.4003 19.3184 24.6806 19.2356 24.7673 19.2138L24.8192 19.201L25.6726 15.6666L25.5175 15.7244C25.0313 15.9053 23.2933 16.4301 22.7528 16.5194C22.1987 16.6122 21.6443 16.6593 21.1043 16.6593C20.2582 16.6593 19.6348 16.5149 19.2521 16.2299C18.8911 15.962 18.6465 15.5044 18.5239 14.8686C19.7144 14.8636 20.8286 14.7686 21.8366 14.5866C22.8842 14.3977 23.8012 14.0895 24.5617 13.6707Z" fill="#006CFF"/>
<path fill-rule="evenodd" clip-rule="evenodd" d="M37.7919 6.12695L34.5806 9.88367L32.6815 6.12695H28.6772L32.0645 12.827L26.3135 19.5549H30.3554L33.5668 15.7986L35.4656 19.5549H39.4702L36.0825 12.8552L41.8338 6.12695H37.7919Z" fill="#006CFF"/>
<path fill-rule="evenodd" clip-rule="evenodd" d="M47.306 6.12794L48.2783 2.17041L44.3127 2.78348L43.5193 6.1289L41.806 13.3527C41.6012 14.2198 41.4816 15.0448 41.4482 15.8267C41.4837 16.7224 41.707 17.4897 42.1201 18.127C42.8553 19.2605 44.1964 19.8368 46.14 19.8606C46.8675 19.8495 47.5042 19.7825 48.0481 19.6583C48.13 19.6395 48.211 19.6202 48.2914 19.6005L49.0693 16.3792C48.7992 16.461 48.5312 16.5287 48.2648 16.5823C47.8816 16.6585 47.485 16.6971 47.0758 16.6971C46.5982 16.6971 46.2222 16.6289 45.9497 16.4925C45.6772 16.3569 45.4856 16.1648 45.374 15.918C45.2634 15.6721 45.2212 15.3785 45.2463 15.0374C45.2724 14.6973 45.3362 14.3311 45.4389 13.9397L45.5287 13.5644L46.5639 9.24258H50.2278H50.785L51.552 6.1289L51.5522 6.12794H47.306Z" fill="#006CFF"/>
<path fill-rule="evenodd" clip-rule="evenodd" d="M62.0968 18.9419C61.8063 19.0271 61.4869 19.125 61.1371 19.2363C60.7881 19.3467 60.395 19.4482 59.9607 19.5424C59.5253 19.6357 59.0396 19.712 58.5027 19.7722C57.9648 19.8314 57.3558 19.861 56.6732 19.861C54.6612 19.861 53.2796 19.2829 52.5287 18.1251C51.7785 16.9681 51.6508 15.3847 52.1455 13.3768L53.885 6.12695H57.6968L56.0085 13.2242C55.906 13.6659 55.825 14.0958 55.7647 14.5132C55.7054 14.9296 55.7099 15.2958 55.7782 15.6109C55.8467 15.9251 56.004 16.1809 56.2513 16.3766C56.4987 16.5723 56.8783 16.6701 57.3892 16.6701C57.8848 16.6701 58.3876 16.6189 58.8984 16.5176L61.3799 6.12695H65.1918L62.0968 18.9419Z" fill="#006CFF"/>
<path fill-rule="evenodd" clip-rule="evenodd" d="M67.8342 6.73992C68.1247 6.65471 68.444 6.55686 68.7939 6.44554C69.1429 6.33512 69.5359 6.23368 69.9704 6.13949C70.4057 6.04613 70.8914 5.96982 71.4283 5.90967C71.9662 5.85043 72.5752 5.8208 73.2578 5.8208C75.2698 5.8208 76.6514 6.39886 77.4024 7.55677C78.1525 8.71378 78.2802 10.2971 77.7855 12.305L76.0461 19.5548H72.2342L73.9224 12.4576C74.025 12.016 74.106 11.586 74.1662 11.1687C74.2256 10.7522 74.2211 10.3859 74.1527 10.0709C74.0843 9.75678 73.927 9.50093 73.6797 9.30523C73.4322 9.10953 73.0527 9.01175 72.5418 9.01175C72.0462 9.01175 71.5435 9.06292 71.0326 9.16429L68.5511 19.5548H64.7393L67.8342 6.73992Z" fill="#006CFF"/>
<path fill-rule="evenodd" clip-rule="evenodd" d="M84.2157 4.49332C83.6869 4.49332 83.2093 4.33629 82.7829 4.02023C82.3566 3.70617 82.1434 3.22506 82.1434 2.57871C82.1434 2.22059 82.2162 1.88492 82.3611 1.56982C82.5059 1.25486 82.6975 0.982856 82.9368 0.753042C83.1751 0.523297 83.4521 0.340095 83.7678 0.203711C84.0835 0.068157 84.4208 0 84.7788 0C85.3067 0 85.7843 0.15703 86.2115 0.472127C86.637 0.787155 86.8511 1.26826 86.8511 1.91454C86.8511 2.27176 86.7782 2.60834 86.6334 2.92253C86.4886 3.23846 86.2961 3.51047 86.0577 3.74028C85.8185 3.97003 85.5414 4.15309 85.2267 4.28864C84.9101 4.4251 84.5737 4.49332 84.2157 4.49332ZM82.3746 19.5549H78.5889L81.7864 6.12689H85.5982L82.3746 19.5549Z" fill="#006CFF"/>
<path fill-rule="evenodd" clip-rule="evenodd" d="M94.2852 19.1874L94.9514 16.4292L94.9808 16.3076C94.7219 16.3967 94.4415 16.4752 94.1385 16.5424C93.678 16.6448 93.2004 16.6959 92.7066 16.6959C91.7002 16.6959 91.0094 16.4276 90.6343 15.8916C90.2592 15.3558 90.0713 14.653 90.0713 13.7851C90.0713 12.3049 90.4383 11.1345 91.1713 10.2754C91.9044 9.41555 92.9108 8.98569 94.1898 8.98569C94.7187 8.98569 95.1666 9.04128 95.5326 9.15169C95.8947 9.26149 96.2435 9.38282 96.5809 9.51699L97.2471 6.75888L97.3518 6.32515C97.0073 6.19291 96.6402 6.07979 96.2495 5.98588C95.6442 5.84225 94.9579 5.76953 94.1898 5.76953C92.9621 5.76953 91.8495 5.99037 90.8521 6.43287C89.8536 6.87634 89.0055 7.47946 88.3067 8.24604C87.6068 9.01172 87.0699 9.90474 86.6949 10.9262C86.3198 11.9477 86.1318 13.0365 86.1318 14.1935C86.1318 14.96 86.2379 15.6915 86.452 16.389C86.6652 17.0873 87.0106 17.6958 87.4882 18.2146C87.9648 18.7344 88.5702 19.1463 89.3041 19.4525C90.0371 19.7594 90.932 19.912 91.9898 19.912C92.8083 19.912 93.5035 19.8402 94.0747 19.6957C94.1062 19.6877 94.1371 19.6794 94.1684 19.6713L94.1734 19.6504L94.2852 19.1874Z" fill="#006CFF"/>
<path fill-rule="evenodd" clip-rule="evenodd" d="M104.556 8.98561C103.993 8.98561 103.498 9.1481 103.072 9.47114C102.646 9.79431 102.288 10.2027 101.998 10.6964C101.708 11.19 101.49 11.7304 101.345 12.3174C101.2 12.9045 101.128 13.4619 101.128 13.9897C101.128 14.8576 101.264 15.5254 101.538 15.994C101.81 16.4616 102.305 16.6959 103.021 16.6959C103.584 16.6959 104.079 16.5343 104.505 16.2103C104.931 15.8872 105.289 15.4788 105.579 14.9851C105.869 14.4913 106.086 13.9511 106.232 13.364C106.377 12.777 106.449 12.2196 106.449 11.6918C106.449 10.8239 106.312 10.156 106.039 9.68838C105.767 9.21992 105.272 8.98561 104.556 8.98561ZM102.664 19.912C101.76 19.912 100.976 19.7756 100.31 19.5036C99.6453 19.2316 99.0949 18.8493 98.6604 18.3547C98.2251 17.8618 97.8968 17.2785 97.6756 16.6061C97.4534 15.9338 97.3428 15.1898 97.3428 14.373C97.3428 13.3515 97.5092 12.33 97.842 11.3094C98.1748 10.288 98.6641 9.36887 99.3125 8.55209C99.961 7.73524 100.753 7.06748 101.692 6.54771C102.63 6.02897 103.704 5.76953 104.915 5.76953C105.802 5.76953 106.582 5.90591 107.255 6.17792C107.929 6.44986 108.484 6.83318 108.918 7.32685C109.354 7.82053 109.681 8.403 109.903 9.07539C110.125 9.74764 110.236 10.4918 110.236 11.3094C110.236 12.33 110.073 13.3515 109.75 14.373C109.426 15.3935 108.948 16.3126 108.318 17.1295C107.686 17.9463 106.897 18.615 105.951 19.1338C105.004 19.6526 103.909 19.912 102.664 19.912Z" fill="#006CFF"/>
<path fill-rule="evenodd" clip-rule="evenodd" d="M120.87 9.4445C119.462 8.98597 117.533 9.05869 117.244 9.10081L116.536 9.20605L114.046 19.5551H110.234L113.304 6.84162C114.037 6.60372 114.86 6.37847 115.773 6.16578C116.685 5.95295 117.712 5.84619 118.855 5.84619C119.282 5.84619 119.755 5.88479 120.275 5.9611C120.795 6.03733 121.252 6.16122 121.644 6.33089L120.87 9.4445Z" fill="#006CFF"/>
<path fill-rule="evenodd" clip-rule="evenodd" d="M123.754 6.73992C124.045 6.65471 124.364 6.55686 124.714 6.44554C125.063 6.33512 125.456 6.23368 125.89 6.13949C126.326 6.04613 126.811 5.96982 127.348 5.90967C127.886 5.85043 128.495 5.8208 129.178 5.8208C131.19 5.8208 132.571 6.39886 133.322 7.55677C134.072 8.71378 134.2 10.2971 133.705 12.305L131.966 19.5548H128.154L129.842 12.4576C129.945 12.016 130.026 11.586 130.086 11.1687C130.145 10.7522 130.141 10.3859 130.073 10.0709C130.004 9.75678 129.847 9.50093 129.6 9.30523C129.352 9.10953 128.973 9.01175 128.462 9.01175C127.966 9.01175 127.463 9.06292 126.953 9.16429L124.471 19.5548H120.659L123.754 6.73992Z" fill="#006CFF"/>
</svg>
