<svg width="20" height="20" viewBox="0 0 20 20" fill="none" xmlns="http://www.w3.org/2000/svg">
<rect opacity="0.01" width="20" height="20" fill="#D8D8D8"/>
<path fill-rule="evenodd" clip-rule="evenodd" d="M8.75 2.5C12.2018 2.5 15 5.29822 15 8.75C15 10.3259 14.4167 11.7656 13.4543 12.865L17.4791 16.8898C17.6418 17.0525 17.6418 17.3163 17.4791 17.4791C17.3163 17.6418 17.0525 17.6418 16.8898 17.4791L12.865 13.4543C11.7656 14.4167 10.3259 15 8.75 15C5.29822 15 2.5 12.2018 2.5 8.75C2.5 5.29822 5.29822 2.5 8.75 2.5ZM8.75 3.33333C5.75846 3.33333 3.33333 5.75846 3.33333 8.75C3.33333 11.7415 5.75846 14.1667 8.75 14.1667C11.7415 14.1667 14.1667 11.7415 14.1667 8.75C14.1667 5.75846 11.7415 3.33333 8.75 3.33333Z" fill="#979797"/>
<mask id="mask0_86_2618" style="mask-type:alpha" maskUnits="userSpaceOnUse" x="2" y="2" width="16" height="16">
<path fill-rule="evenodd" clip-rule="evenodd" d="M8.75 2.5C12.2018 2.5 15 5.29822 15 8.75C15 10.3259 14.4167 11.7656 13.4543 12.865L17.4791 16.8898C17.6418 17.0525 17.6418 17.3163 17.4791 17.4791C17.3163 17.6418 17.0525 17.6418 16.8898 17.4791L12.865 13.4543C11.7656 14.4167 10.3259 15 8.75 15C5.29822 15 2.5 12.2018 2.5 8.75C2.5 5.29822 5.29822 2.5 8.75 2.5ZM8.75 3.33333C5.75846 3.33333 3.33333 5.75846 3.33333 8.75C3.33333 11.7415 5.75846 14.1667 8.75 14.1667C11.7415 14.1667 14.1667 11.7415 14.1667 8.75C14.1667 5.75846 11.7415 3.33333 8.75 3.33333Z" fill="white"/>
</mask>
<g mask="url(#mask0_86_2618)">
<rect width="20" height="20" fill="#3A3A3A"/>
<rect width="20" height="20" fill="#3A3A3A"/>
</g>
</svg>
